<svg id="visual" viewBox="0 0 900 600" width="900" height="600" xmlns="http://www.w3.org/2000/svg" xmlns:xlink="http://www.w3.org/1999/xlink" version="1.1"><path d="M761 600L744.3 575C727.7 550 694.3 500 647.8 450C601.3 400 541.7 350 528 300C514.3 250 546.7 200 544.8 150C543 100 507 50 489 25L471 0L900 0L900 25C900 50 900 100 900 150C900 200 900 250 900 300C900 350 900 400 900 450C900 500 900 550 900 575L900 600Z" fill="#2c3282"></path><path d="M642 600L668 575C694 550 746 500 743.2 450C740.3 400 682.7 350 647.8 300C613 250 601 200 608 150C615 100 641 50 654 25L667 0L900 0L900 25C900 50 900 100 900 150C900 200 900 250 900 300C900 350 900 400 900 450C900 500 900 550 900 575L900 600Z" fill="#f14141"></path></svg>